<svg xmlns="http://www.w3.org/2000/svg" viewBox="0 0 700 402.41">
  <title>RG</title>
  <g id="Layer_1-2" data-name="Layer 1">
    <path d="M317.49,378.77c-38.6-8.2-47.77-26.54-57.9-88.3-12.06-73.82-26.06-92.16-51.14-95.06v126.9a58,58,0,0,1,15.44,7.24L193,379.25c-28.47-13-53.08-21.23-90.23-21.23-51.64,0-86.37,19.78-98,44.39L0,401c4.34-45.83,47.29-81.54,101.81-89.74,14-8.21,22.19-28,22.19-49.7V121.11c0-34.26,15.44-50.18,61.28-84L235.94,0h2.42c54.52,18.82,96.5,47.77,96.5,96,0,52.59-31.36,78.17-77.2,89.75v1c28.47,5.79,50.18,28.47,58.87,66.59,9.64,43.42,12.06,63.21,27,70.44a24.74,24.74,0,0,0,15,1.93l1,1ZM150.06,43.43c-23.64,17.85-42,36.18-42,70.92v137c0,34.25-20.26,53.55-64.17,69.48l-2.41-3.38c12.06-11.58,20.74-21.71,20.74-54V212.3H58.38c-12.54,0-19.78,3.38-23.16,15.44H33.29a50.87,50.87,0,0,1-7.23-26.05c0-18.34,14.47-29.92,34.74-29.92h1.93V133.65C62.73,97,98,64.17,126.9,50.18c-13-3.86-36.19-11.58-55-11.58C56,38.6,46.32,42.94,37.64,53.08l-1.93-2.42C44.87,15.92,67.55.48,96,.48c23.64,0,38.12,11.1,52.59,11.1,19.3,0,32.33-1,42.94-9.17l5.8,4.34S182.39,19.3,150.06,43.43Zm49.22,151.5H181.91v46.32c0,32.81-14,50.66-53.08,69l.48,1c3.38-.48,13-.48,16.41-.48,15.44,0,37.63,3.86,53.56,9.16Zm0-149.57c-9.66,7.72-17.37,18.33-17.37,38.11v99.4c5.78,0,11.58.48,17.37,0Zm9.17-2.9V181.9c35.22-5.3,68.51-23.15,68.51-67.06C277,72.86,239.81,51.63,208.45,42.46Z"/>
    <path d="M521.47,385.52c-101.81,0-170.81-70-170.81-183.35,0-102.77,72.86-168.4,163.09-198.31l2.41,3.86c-48.25,30.88-98.42,83-98.42,186.25,0,40.53,9.64,73.34,24.6,98.43l8.2-6.76c12.55-10.13,17.37-18.81,17.37-44.87V121.59c0-16.88-3.37-28-11.58-30.4V88.78c18.82-12.54,98-56.93,130.28-86.85,9.65,18.82,30.4,23.64,41.5,23.64,11.58,0,19.3-3.37,28.95-10.61l4.34,2.41C653.68,43.43,640.17,73.83,604,73.83c-21.71,0-38.12-10.14-51.15-21.72V160.19c13.51-7.23,29.44-13,46.32-13,66.11,0,100.85,41.49,100.85,97.46C700,320.38,614.59,385.52,521.47,385.52Zm22.2-203.62a110.59,110.59,0,0,0-16.89,9.66v21.23c0,27-15.92,43.9-42,61.75L446.69,300.6c24.12,35.71,60.3,54.53,97,58.87Zm0-137L526.78,57.42V178.05c4.82-3.86,10.61-8.2,16.89-12.55ZM575,175.63a76.65,76.65,0,0,0-22.2,3.38V360.43h7.24c54,0,76.24-32.81,76.24-101.32C636.31,207,605,175.63,575,175.63Z"/>
  </g>
</svg>
